<svg xmlns="http://www.w3.org/2000/svg" viewBox="0 0 1000 1000">
	<g transform="translate(0.000000,512.000000) scale(0.100000,-0.100000)">
		<path d="M1154.8,5009.3c-496.7-74.8-882.2-416.2-1020.3-903.3C101.9,3989,100,3797.2,100,118.8c0-3689.9,1.9-3870.1,34.5-3989c120.8-425.8,450.7-755.6,876.4-876.4c118.9-32.6,299.2-34.5,3989-34.5c3689.9,0,3870.1,1.9,3989,34.5c425.8,120.8,755.6,450.7,876.4,876.4c32.6,118.9,34.5,299.2,34.5,3989s-1.9,3870.1-34.5,3989c-118.9,420-443,747.9-866.8,874.5c-109.3,34.5-306.9,36.4-3931.5,38.4C2969,5022.7,1208.5,5016.9,1154.8,5009.3z M2351.5,3964.1c351-84.4,598.4-349,657.8-707.7c42.2-249.3-51.8-540.8-230.1-719.2c-341.4-341.4-997.3-354.8-1348.2-26.8c-184.1,170.7-266.6,362.5-266.6,617.5c0,510.1,370.1,857.3,920.5,863C2163.6,3990.9,2284.4,3979.4,2351.5,3964.1z M7186.3,1710.6c792.1-90.1,1350.1-583,1551.5-1371.2c94-366.3,97.8-435.3,97.8-2113.4v-1578.3h-822.7h-824.7l-5.8,1492.1c-7.7,1465.2-7.7,1492.1-49.9,1639.7c-78.6,281.9-211,460.3-416.2,561.9c-109.3,51.8-128.5,55.6-354.8,55.6c-235.9,0-243.6-1.9-374-65.2C5723,201.3,5515.9-82.5,5479.5-364.4c-9.6-76.7-19.2-780.5-19.2-1563v-1424.9h-824.7H3811v2483.6v2483.5h824.7h824.7v-349c0-333.7,1.9-347.1,32.6-303C5878.3,1534.2,6467.1,1793.1,7186.3,1710.6z M2909.6-868.8v-2483.6h-824.7h-824.7v2483.6v2483.5h824.7h824.7V-868.8z"/>
	</g>
</svg>