<svg xmlns="http://www.w3.org/2000/svg" viewBox="0 0 1000 1000">
	<path d="M937.9,10H62.1C33.3,10,10,33.3,10,62.1v875.7c0,28.8,23.3,52.1,52.1,52.1h875.7c28.8,0,52.1-23.3,52.1-52.1V62.1C990,33.3,966.7,10,937.9,10z M479.8,781.2H354.9c-5.9-7.9-9.6-16.9-11.2-27.2c-1.6-10.2-2.7-20.9-3.2-31.9l-3.1-107.9c-1.1-22.1-6.5-39.4-16.4-52c-9.9-12.6-26.6-18.9-50-18.9h-60.2v237.9h-114V218.8h210.6c47.5,0,84.5,11.9,110.8,35.8c26.4,23.9,39.6,60.3,39.6,109.1c0,37.8-7.7,68.7-23,92.6c-15.3,23.9-39,39.3-71.2,46.1v1.6c19.5,2.6,35.1,7.5,46.7,14.5c11.6,7.1,20.6,17.3,26.9,30.7c6.3,13.4,10.7,30.3,13.1,50.8c2.4,20.5,3.8,45.7,4.3,75.6c0.5,29.9,2.3,52.8,5.2,68.5c2.9,15.7,9.6,26.5,20.2,32.3L479.8,781.2L479.8,781.2z M903.3,781.2h-83.9v-52h-1.6c-13.7,22-30.2,38.1-49.5,48c-19.3,10-42.3,15-69.3,15c-34.8,0-63.2-6.4-85.1-19.3c-21.9-12.8-39.1-31.9-51.4-57.1c-12.4-25.2-20.7-56.3-24.9-93.3c-4.2-37.1-6.4-80-6.4-128.8c0-47.3,3-88.8,9.1-124.5c6.1-35.7,16.5-65.5,31.3-89.4c14.8-23.9,34.3-41.9,58.6-54c24.3-12.1,54.6-18.1,91-18.1c62.2,0,107.1,15.4,134.6,46.1c27.4,30.7,41.2,74.7,41.2,131.9H787.7c0-10-1.2-20.6-3.6-31.9c-2.4-11.3-6.2-21.5-11.5-30.7c-5.3-9.2-12-16.8-20.2-22.9c-8.2-6-18.1-9.1-29.7-9.1c-27.4,0-47.2,15.3-59.3,45.7c-12.2,30.5-18.2,80.9-18.2,151.3c0,34.1,1,64.7,3.1,91.7c2.1,27.1,6,50.2,11.5,69.3c5.5,19.1,13.5,33.8,23.7,44.1c10.3,10.2,23.6,15.4,40,15.4c6.8,0,14.4-1.9,22.5-5.5c8.2-3.7,15.8-9.2,22.9-16.5c7.1-7.4,13.1-16.7,17.8-28c4.7-11.3,7.1-24.5,7.1-39.8v-57.5h-75.2v-83.5h184.4L903.3,781.2L903.3,781.2L903.3,781.2z"/>
	<path d="M264.5,302.3h-53.8v162.2h47.5c27.4,0,48.5-6.4,63.3-19.3c14.8-12.8,22.1-34.5,22.1-65C343.6,328.3,317.3,302.3,264.5,302.3z"/>
</svg>